<svg xmlns="http://www.w3.org/2000/svg" xmlns:xlink="http://www.w3.org/1999/xlink" width="191.43" height="199.06" viewBox="0 0 191.43 199.06">
  <defs>
    <linearGradient id="Degradado_sin_nombre_23" data-name="Degradado sin nombre 23" x1="14.62" y1="89.38" x2="185.12" y2="119.44" gradientUnits="userSpaceOnUse">
      <stop offset="0"/>
      <stop offset="1" stop-color="#414141"/>
    </linearGradient>
  </defs>
  <g id="Capa_2" data-name="Capa 2">
    <g id="Capa_1-2" data-name="Capa 1">
      <path d="M189,56.55a74.07,74.07,0,0,0-15.14-29.79A73.15,73.15,0,0,0,147.74,7a80.4,80.4,0,0,0-33.38-7H51.05A24.62,24.62,0,0,0,26.79,20.37L.39,170.1a24.63,24.63,0,0,0,24.26,29h57L86,174.21h.88c11-.2,29-2.42,39.68-6.61a103.38,103.38,0,0,0,29.14-17.54,105,105,0,0,0,22.07-26,95.88,95.88,0,0,0,12.32-32.69A83,83,0,0,0,189,56.55Zm-14.15,32A80.77,80.77,0,0,1,164.5,116a90.15,90.15,0,0,1-19,22.29,88.28,88.28,0,0,1-24.95,15,77.73,77.73,0,0,1-27.45,5.54H47.65a4.34,4.34,0,0,1-4.28-5.12l19-108a4.38,4.38,0,0,1,4.3-3.6h43.23a42.49,42.49,0,0,1,17.61,3.66,37.47,37.47,0,0,1,13.39,10.11,38.18,38.18,0,0,1,7.76,15.32,44.16,44.16,0,0,1,.52,18.5,55.94,55.94,0,0,1-19.2,32.6c-10.23,8.69-22.68,13.48-35,13.48a4.36,4.36,0,0,1-4.29-5.12l4.1-23.27a4.3,4.3,0,0,1,3.95-3.58,26.67,26.67,0,0,0,8.67-2.65A17.73,17.73,0,0,0,117.21,88a12.28,12.28,0,0,0-2.4-10.26,11.86,11.86,0,0,0-9.3-4H87.24L76,145.37H68L79.23,73.7l.86-5.11A4.36,4.36,0,0,1,84.38,65h21.13a20.38,20.38,0,0,1,16,7.13,19.62,19.62,0,0,1,4,7.95,22.49,22.49,0,0,1,.27,9.44A26.32,26.32,0,0,1,111,109.08a35.54,35.54,0,0,1-8.23,2.87l-2.61,14.77c19.41-2.55,37-18.86,40.41-38.53,1.8-10.17-.47-19.66-6.38-26.7-5.77-6.87-14.4-10.65-24.31-10.65H70.35L52.84,150.12H92.1c34.77,0,68.06-28.32,74.2-63.11,2.94-16.73-.82-32.35-10.58-44C146.18,31.66,132,25.4,115.63,25.4h-64L25,176.67H63.15l2.06-12.58h8l-2.06,12.58h.09L70,183.74l-.27,1.65H19.8a4.32,4.32,0,0,1-3.33-1.56,4.37,4.37,0,0,1-1-3.56l28.22-160A4.35,4.35,0,0,1,48,16.69h67.62a64.21,64.21,0,0,1,26.62,5.52A56.44,56.44,0,0,1,162.4,37.42a57.16,57.16,0,0,1,11.68,23.07A66.88,66.88,0,0,1,174.88,88.52Z" fill="url(#Degradado_sin_nombre_23)"/>
    </g>
  </g>
</svg>
