<svg xmlns="http://www.w3.org/2000/svg" width="669.6" height="107.5" viewBox="0 0 669.6 107.5">
  <g id="Capa_2" data-name="Capa 2">
    <g id="Capa_1-2" data-name="Capa 1">
      <path d="M433.37,106.31H394.11c-6.72,0-5.26-6.37-5.26-6.37l1.89-12.26s.48-5.43,5.91-5.43h36.72c12.6,0,19-2.12,19-8.91,0-8.48-9.3-7.83-14.46-7.83-9.81,0-40.33,3-40.33-31.17,0-33,34.82-33,44-33h35c5,0,3.9,5.54,3.9,5.54L477.86,20.2a6.62,6.62,0,0,1-6.73,5.23H441.54c-4.35,0-19-1.92-19,8.91,0,8.69,10.46,7.12,14.6,7.12,12.24,0,40.19-.44,40.19,31.88C477.35,106.31,444.29,106.31,433.37,106.31Zm-47.82-33c0-32.32-27.95-31.88-40.19-31.88-4.14,0-14.61,1.57-14.61-7.12,0-10.83,14.63-8.91,19-8.91h29.58a6.62,6.62,0,0,0,6.74-5.23l2.56-13.29s1.06-5.54-3.9-5.54h-35c-9.17,0-44,0-44,33,0,34.22,30.52,31.17,40.34,31.17,5.16,0,14.46-.65,14.46,7.83,0,6.79-6.38,8.91-19,8.91H304.85c-5.44,0-5.91,5.43-5.91,5.43l-1.89,12.26s-1.47,6.37,5.25,6.37h39.27C352.49,106.31,385.55,106.31,385.55,73.34ZM218.41,107.5a7.57,7.57,0,0,0,7.25-6.14l3.44-13.87a30.53,30.53,0,0,0,19.8,6.86c20.67,0,32.73-11.28,39.21-20.75a67.33,67.33,0,0,0,11.21-36C299.32,13,288.81,0,268.92,0c-9.1,0-17.94,4-26.37,11.84l.62-3.55A5.93,5.93,0,0,0,242,3.42a5.79,5.79,0,0,0-4.49-2h-.25L223.92,4.54c-3.9,1.11-6.14,3.15-6.66,6.05l-17,90a5.93,5.93,0,0,0,1.23,4.87,5.8,5.8,0,0,0,4.49,2ZM272,28.69c2.85,3.39,3.62,8.9,2.31,16.38s-6.65,25-27.55,25h-.45c-3.44,0-11.5,0-13.33-2.19a1.2,1.2,0,0,1-.23-1.12c1.32-7.45,2.09-11.87,2.64-15.06.89-5.13,1.22-7,2.42-13.33,1.22-6.44,14.64-13.9,22.47-13.9C265.72,24.43,269.66,25.86,272,28.69Zm349.69-24A2.72,2.72,0,0,0,619,1.37H509.65a4.17,4.17,0,0,0-3.94,3.34l-3.07,17.38a2.73,2.73,0,0,0,2.76,3.34H614.72a4.17,4.17,0,0,0,3.94-3.34Zm24.21,40.75a2.73,2.73,0,0,0-2.75-3.35H504.33a4.17,4.17,0,0,0-3.94,3.35l-3.06,17.37a2.72,2.72,0,0,0,2.76,3.34H638.93a4.16,4.16,0,0,0,3.94-3.34Zm23.62,40.73a2.73,2.73,0,0,0-2.76-3.34H497.25a4.17,4.17,0,0,0-3.94,3.34l-3.06,17.38a2.72,2.72,0,0,0,2.75,3.34H662.55a4.15,4.15,0,0,0,3.93-3.34Zm-592-64.1a2.69,2.69,0,0,0,2.72,3.34H189.58a4.22,4.22,0,0,0,4-3.34l3.26-17.38a2.69,2.69,0,0,0-2.72-3.34H84.77a4.22,4.22,0,0,0-4,3.34Zm-39,40.74a2.69,2.69,0,0,0,2.72,3.34H180.06a4.22,4.22,0,0,0,4-3.34l3.26-17.37a2.7,2.7,0,0,0-2.72-3.35H45.74a4.23,4.23,0,0,0-4,3.35ZM.06,103.57a2.69,2.69,0,0,0,2.72,3.34H172.32a4.24,4.24,0,0,0,4-3.34l3.25-17.38a2.69,2.69,0,0,0-2.71-3.34H7.29a4.22,4.22,0,0,0-4,3.34Z" fill="#ed1c24"/>
    </g>
  </g>
</svg>
